:SAMPLES-PER-SECOND 24
:FULLY-SPECIFIED
:DEGREES
33
root  -0.309677 40.4552 14.57 135.867 12.651 90.3218
RightUpLeg  -31.6641 -48.0141 -56.7885
RightLeg  3.26815 -65.3515 0.796563
RightFoot  -1.94386 0.237032 -3.04177
RightToes  -1.74623e-010 0 -2.59999e-017
Spine  9.82564 -5.78876 4.50183
Spine1  13.0024 4.53849 -25.852
HEad  -12.5385 35.7075 -39.7826
LeftShoulder1  2.13092 -2.89533 -27.1988
LeftArm  0.10297 6.52736 -22.3958
LeftForeArm  137.693 -68.0504 -151.871
LeftHand  0.302392 14.0946 4.86342
RightShoulder  2.69874 5.1493 25.1205
RightArm  -5.4281 -13.2349 23.5824
RightForeArm  28.7765 71.2769 32.4677
RightHand  -1.66506 3.8626 -20.9365
LeftUpLeg  -13.9369 34.1529 25.1416
LeftLeg  121.822 2.99185 -4.96403
LeftFoot  38.3759 7.23262 -16.079
LeftToes  -6.27559e-011 -2.10356e-011 8.24929e-012
34
root  0.304587 40.9505 15.3002 139.979 14.1967 93.4488
RightUpLeg  -26.6579 -44.0893 -56.2695
RightLeg  -2.0842 -62.06 4.64382
RightFoot  0.294601 0.177836 -1.70722
RightToes  -1.74623e-010 0 -2.59999e-017
Spine  9.84162 -4.99996 4.17299
Spine1  11.8376 5.21017 -27.1969
HEad  -11.7514 34.4152 -40.1414
LeftShoulder1  2.16162 -2.9609 -27.3402
LeftArm  -1.49186 5.64249 -21.4964
LeftForeArm  134.926 -68.6102 -150.759
LeftHand  0.35002 13.4565 5.85443
RightShoulder  2.58263 5.04604 24.0893
RightArm  -2.33709 -8.86363 26.1077
RightForeArm  32.5563 72.7626 35.7787
RightHand  -1.47826 3.53068 -19.3211
LeftUpLeg  -13.6278 28.2949 27.6787
LeftLeg  110.748 1.51823 -4.36608
LeftFoot  32.9358 3.64137 -9.51147
LeftToes  -6.27559e-011 -2.10356e-011 8.24929e-012
35
root  0.874312 41.3639 16.0035 144.185 15.9854 97.454
RightUpLeg  -22.4684 -40.4532 -54.5044
RightLeg  -4.53309 -56.3431 6.41712
RightFoot  2.10164 0.212361 -1.67853
RightToes  -1.74623e-010 0 -2.59999e-017
Spine  9.60336 -4.09498 3.72399
Spine1  10.8661 5.59384 -27.2782
HEad  -11.8751 33.1739 -39.8924
LeftShoulder1  2.21567 -3.06927 -27.6229
LeftArm  -3.62381 5.86851 -19.9802
LeftForeArm  130.807 -68.0147 -151.098
LeftHand  0.443824 13.2958 7.28262
RightShoulder  2.49773 5.01338 23.1583
RightArm  1.90562 -1.72375 27.42
RightForeArm  35.8004 73.8938 38.8431
RightHand  -1.29781 3.25903 -17.5416
LeftUpLeg  -14.6369 25.467 30.891
LeftLeg  105.564 1.43501 -5.43947
LeftFoot  28.4194 2.23871 -6.67869
LeftToes  -6.27559e-011 -2.10356e-011 8.24929e-012
36
root  1.28351 41.6629 16.7384 148.264 16.875 102.522
RightUpLeg  -18.8584 -37.2111 -52.3955
RightLeg  -5.39114 -54.2087 7.21499
RightFoot  3.16073 0.145004 -0.972687
RightToes  -1.74623e-010 0 -2.59999e-017
Spine  9.99831 -3.72501 3.27697
Spine1  10.0371 5.58387 -27.2339
HEad  -13.6356 31.4265 -39.4313
LeftShoulder1  2.14051 -2.97133 -26.9559
LeftArm  -6.28837 6.2349 -17.8889
LeftForeArm  127.729 -66.4688 -152.779
LeftHand  0.390744 12.4964 7.18372
RightShoulder  2.35199 4.83252 21.9767
RightArm  4.89331 5.99353 30.9948
RightForeArm  41.9355 75.5012 44.1432
RightHand  -1.15753 2.8476 -16.445
LeftUpLeg  -17.1695 25.4655 33.2662
LeftLeg  105.758 1.23033 -4.70236
LeftFoot  21.4184 0.330693 -1.50088
LeftToes  -6.27559e-011 -2.10356e-011 8.24929e-012
37
root  1.6245 41.8707 17.4931 151.923 16.3722 108.249
RightUpLeg  -15.3109 -34.3817 -50.2353
RightLeg  -5.52621 -55.4739 7.76269
RightFoot  3.60736 0.113733 -0.678547
RightToes  -1.74623e-010 0 -2.59999e-017
Spine  10.6251 -3.37237 2.85152
Spine1  9.72238 5.89216 -27.3016
HEad  -13.6142 29.0116 -36.7285
LeftShoulder1  1.86057 -2.60022 -24.2623
LeftArm  -8.34799 6.11706 -17.4525
LeftForeArm  126.713 -64.7896 -154.625
LeftHand  0.32139 11.6186 6.86946
RightShoulder  2.10927 4.53988 19.8422
RightArm  6.07555 10.6704 37.7872
RightForeArm  58.8995 78.2772 59.5219
RightHand  -1.05235 2.43974 -15.7346
LeftUpLeg  -20.6304 26.4323 34.382
LeftLeg  109.293 0.0178152 -0.808593
LeftFoot  19.0616 -0.367334 0.916759
LeftToes  -6.27559e-011 -2.10356e-011 8.24929e-012
38
root  2.02924 42.0822 18.2054 155.157 14.3344 114.844
RightUpLeg  -11.4223 -32.014 -48.0799
RightLeg  -3.72879 -59.3008 7.1575
RightFoot  4.37866 -0.0999358 0.916038
RightToes  -1.74623e-010 0 -2.59999e-017
Spine  11.1871 -2.55956 2.07302
Spine1  9.48807 6.2796 -25.6154
HEad  -9.73251 25.821 -30.3689
LeftShoulder1  1.53811 -2.21376 -20.4735
LeftArm  -7.95137 5.83543 -19.4915
LeftForeArm  126.582 -63.4878 -155.97
LeftHand  0.328561 11.4115 7.22035
RightShoulder  1.92506 4.37022 17.9251
RightArm  6.49679 11.2512 44.0175
RightForeArm  95.2029 79.922 93.9981
RightHand  -0.964077 2.22629 -14.8317
LeftUpLeg  -24.4639 28.0595 34.5665
LeftLeg  113.481 -0.0510763 -0.512865
LeftFoot  22.768 0.339389 -1.54795
LeftToes  -6.27559e-011 -2.10356e-011 8.24929e-012
39
root  2.51705 42.462 18.8208 157.548 11.7073 121.771
RightUpLeg  -8.11392 -31.2075 -46.4345
RightLeg  4.46807 -65.2497 2.36713
RightFoot  6.28928 -0.967477 6.45154
RightToes  -1.74623e-010 0 -2.59999e-017
Spine  11.5657 -1.33989 1.29279
Spine1  9.47924 6.64363 -21.9439
HEad  -4.67973 21.8738 -23.5187
LeftShoulder1  1.38569 -2.11082 -18.0862
LeftArm  -5.26327 4.88274 -22.6695
LeftForeArm  126.429 -64.0393 -155.408
LeftHand  0.213165 10.4496 5.88579
RightShoulder  1.89497 4.32449 17.6606
RightArm  7.17397 10.0154 46.8265
RightForeArm  124.538 78.2982 122.028
RightHand  -0.888692 2.06763 -13.9769
LeftUpLeg  -26.6233 30.5308 33.8062
LeftLeg  114.901 1.30435 -3.19555
LeftFoot  27.4235 1.66376 -5.21448
LeftToes  -6.27559e-011 -2.10356e-011 8.24929e-012
40
root  3.08173 42.8915 19.2823 159.632 9.75777 128.471
RightUpLeg  -6.75662 -41.3087 -45.2019
RightLeg  19.677 -52.3929 -5.94074
RightFoot  8.05989 -1.33499 8.08421
RightToes  -1.74623e-010 0 -2.59999e-017
Spine  10.3694 -0.0087538 1.16228
Spine1  10.6165 7.195 -18.1422
HEad  -0.876875 18.2156 -19.1869
LeftShoulder1  1.39512 -2.2576 -17.5775
LeftArm  -2.28554 3.37457 -26.7579
LeftForeArm  123.026 -67.1223 -151.445
LeftHand  0.0406881 8.48103 3.00142
RightShoulder  1.92713 4.29206 18.2188
RightArm  8.49789 9.30562 47.4916
RightForeArm  130.657 77.2631 128.779
RightHand  -0.83576 1.85631 -13.5289
LeftUpLeg  -26.6276 33.26 33.0604
LeftLeg  113.632 2.42263 -5.67215
LeftFoot  30.1125 3.00174 -8.42287
LeftToes  -6.27559e-011 -2.10356e-011 8.24929e-012
41
root  3.62003 42.8961 19.6743 162.34 7.61446 135.175
RightUpLeg  -10.9295 -58.6274 -38.1327
RightLeg  25.6259 -12.5025 -6.68024
RightFoot  10.8137 -0.197014 1.38708
RightToes  -1.74623e-010 0 -2.59999e-017
Spine  8.13775 0.655391 1.22423
Spine1  11.5297 6.879 -15.3969
HEad  1.68623 15.3538 -16.4484
LeftShoulder1  1.4433 -2.38048 -17.9166
LeftArm  -0.0207524 2.21004 -31.4282
LeftForeArm  116.113 -70.9719 -144.363
LeftHand  -0.00108206 7.61109 1.96631
RightShoulder  2.00292 4.35476 19.0493
RightArm  9.90264 8.59726 47.2334
RightForeArm  126.376 77.4937 126.595
RightHand  -0.745248 1.24502 -13.153
LeftUpLeg  -27.5863 35.0776 31.8083
LeftLeg  111.423 3.35126 -8.37102
LeftFoot  29.1421 3.26765 -9.3492
LeftToes  -6.27559e-011 -2.10356e-011 8.24929e-012
42
root  4.28839 42.4211 20.1798 164.887 4.05705 141.332
RightUpLeg  -7.41528 -35.413 -37.6353
RightLeg  29.4158 -0.372415 -0.545044
RightFoot  9.88512 0.594845 -2.72655
RightToes  -1.74623e-010 0 -2.59999e-017
Spine  7.31947 0.542015 -0.324446
Spine1  10.8245 5.12221 -12.6649
HEad  2.40645 12.9397 -14.1338
LeftShoulder1  1.55686 -2.55159 -19.1882
LeftArm  1.86879 1.51988 -35.1274
LeftForeArm  111.61 -73.8912 -136.683
LeftHand  0.0471368 7.83775 4.00339
RightShoulder  2.17152 4.54304 20.6618
RightArm  10.6132 6.8867 45.6886
RightForeArm  122.625 77.9591 123.238
RightHand  -0.630817 0.491657 -12.5276
LeftUpLeg  -29.6471 34.7029 28.4222
LeftLeg  107.964 3.19187 -9.48565
LeftFoot  22.6287 1.95657 -6.82872
LeftToes  -6.27559e-011 -2.10356e-011 8.24929e-012
